# xmcd
#
# Track frame offsets: 
#        183
#        17663
#        29813
#        49988
#        71590
#        85688
#        100090
#        118540
#        132488
#        148618
#
# Disc length: 2083 seconds
#
# Revision: 1
# Processed by: cddbd v1.5.2PL0 Copyright (c) Steve Scherf et al.
# Submitted via: ExactAudioCopyFreeDBPlugin 1.0
#
DISCID=8b08210a
DTITLE=Hombres G - Agitar antes de usar
DYEAR=1988
DGENRE=Rock pop
TTITLE0=Tengo una Chica
TTITLE1=No Aguanto a tu Prima
TTITLE2=Nassau
TTITLE3=Si no te Tengo a Ti
TTITLE4=Viernes
TTITLE5=Sueltate el Pelo
TTITLE6=Sera Esta Noche
TTITLE7=He Recuperado mi Cabello
TTITLE8=La Madre de Ana
TTITLE9=Viernes (instrumental)
EXTD=
EXTT0=
EXTT1=
EXTT2=
EXTT3=
EXTT4=
EXTT5=
EXTT6=
EXTT7=
EXTT8=
EXTT9=
PLAYORDER=
